<svg id="Layer_1" data-name="Layer 1" xmlns="http://www.w3.org/2000/svg" viewBox="0 0 595 105"><defs><style>.cls-1{fill:#e40303;}.cls-2{fill:#ff8c00;}.cls-3{fill:#ffed00;}.cls-4{fill:#008026;}.cls-5{fill:#004dff;}.cls-6{fill:#750787;}</style></defs><polygon class="cls-1" points="579.86 17.53 518.03 17.53 521.84 0.03 583.68 0.03 579.86 17.53"/><polygon class="cls-2" points="576.36 35.03 514.53 35.03 518.34 17.53 580.18 17.53 576.36 35.03"/><polygon class="cls-3" points="572.86 52.53 511.03 52.53 514.84 35.03 576.68 35.03 572.86 52.53"/><polygon class="cls-4" points="569.36 70.03 507.53 70.03 511.34 52.53 573.18 52.53 569.36 70.03"/><polygon class="cls-5" points="565.86 87.53 504.03 87.53 507.84 70.03 569.68 70.03 565.86 87.53"/><polygon class="cls-6" points="562.36 105.03 500.53 105.03 504.34 87.53 566.18 87.53 562.36 105.03"/><polygon points="582.85 0.03 595.01 0.03 570.79 105.03 558.63 105.03 582.85 0.03"/><polygon points="575.85 0 588.01 0 563.79 105 551.63 105 575.85 0"/><polygon points="521.85 0.03 534.01 0.03 509.79 105.03 497.63 105.03 521.85 0.03"/><polygon points="526.85 0 539.01 0 514.79 105 502.63 105 526.85 0"/><polygon points="23.85 0.03 36.02 0.03 11.79 105.03 -0.37 105.03 23.85 0.03"/><polygon points="29.85 0 42.02 0 17.79 105 5.63 105 29.85 0"/><path d="M73.86,87.5V35.21H86.51l1.06,6.64H88a41.69,41.69,0,0,1,7.38-5.53,18,18,0,0,1,9.38-2.38q8.53,0,12.38,5.59T121,55V87.5H105.49V57q0-5.69-1.53-7.8a5.64,5.64,0,0,0-4.9-2.11A9.32,9.32,0,0,0,94,48.44a29.54,29.54,0,0,0-4.64,3.74V87.5Z"/><path d="M147.34,88.76a16.64,16.64,0,0,1-6.49-1.21,14,14,0,0,1-4.9-3.37,15.55,15.55,0,0,1-3.11-5A17,17,0,0,1,131.73,73a14.64,14.64,0,0,1,7-12.86q7-4.64,22.46-6.22a8.89,8.89,0,0,0-2.06-5.54q-1.84-2.05-6.17-2a18.7,18.7,0,0,0-6.69,1.26A50.2,50.2,0,0,0,139.11,51L133.53,40.8a54.88,54.88,0,0,1,10.59-5,36.13,36.13,0,0,1,11.75-1.9q10.13,0,15.45,5.75t5.32,17.87V87.5H164l-1.05-5.38h-.42a33.46,33.46,0,0,1-7.07,4.8A17.86,17.86,0,0,1,147.34,88.76Zm5.27-12a8.48,8.48,0,0,0,4.53-1.16,22.53,22.53,0,0,0,4-3.26V63.15q-8.24,1.16-11.39,3.37t-3.16,5.27a4.34,4.34,0,0,0,1.63,3.74A7.18,7.18,0,0,0,152.61,76.74Z"/><path d="M201.73,87.5l-17.6-52.29h15.6l6.74,24.67c.71,2.6,1.39,5.25,2.06,8s1.35,5.42,2.05,8.17H211q.94-4.12,2-8.17c.66-2.71,1.35-5.36,2-8l6.85-24.67h14.87L219.65,87.5Z"/><path d="M284.59,88.76a20,20,0,0,1-8.81-1.9A18.89,18.89,0,0,1,269,81.43a25.22,25.22,0,0,1-4.32-8.59,39.66,39.66,0,0,1-1.53-11.49A33.45,33.45,0,0,1,265,49.86a28,28,0,0,1,4.85-8.59,21.09,21.09,0,0,1,7-5.43,18.49,18.49,0,0,1,8.06-1.9,15.84,15.84,0,0,1,7.28,1.48,25.91,25.91,0,0,1,5.58,4l-.63-8V13.6h15.5V87.5H300l-1.06-5.17h-.42a24.5,24.5,0,0,1-6.43,4.59A16.55,16.55,0,0,1,284.59,88.76Zm4-12.65a9.94,9.94,0,0,0,4.59-1,11.63,11.63,0,0,0,3.95-3.69V50a12.36,12.36,0,0,0-4.32-2.64,13.72,13.72,0,0,0-4.32-.74q-3.69,0-6.54,3.54t-2.85,11q0,7.8,2.48,11.39A8,8,0,0,0,288.59,76.11Z"/><path d="M339.51,88.76A16.59,16.59,0,0,1,333,87.55a13.92,13.92,0,0,1-4.91-3.37,15.72,15.72,0,0,1-3.11-5,17.19,17.19,0,0,1-1.1-6.22,14.65,14.65,0,0,1,6.95-12.86q7-4.64,22.46-6.22a8.83,8.83,0,0,0-2.06-5.54q-1.85-2.05-6.16-2a18.79,18.79,0,0,0-6.7,1.26A50.12,50.12,0,0,0,331.29,51L325.7,40.8a54.88,54.88,0,0,1,10.59-5,36.15,36.15,0,0,1,11.76-1.9q10.11,0,15.44,5.75t5.32,17.87V87.5H356.16l-1.05-5.38h-.42a33.66,33.66,0,0,1-7.06,4.8A17.91,17.91,0,0,1,339.51,88.76Zm5.27-12a8.43,8.43,0,0,0,4.53-1.16,22.18,22.18,0,0,0,4-3.26V63.15q-8.22,1.16-11.39,3.37t-3.16,5.27a4.34,4.34,0,0,0,1.63,3.74A7.18,7.18,0,0,0,344.78,76.74Z"/><path d="M400.12,88.76a20.91,20.91,0,0,1-8.27-1.47,14.5,14.5,0,0,1-5.59-4.12,16.72,16.72,0,0,1-3.16-6.37,32,32,0,0,1-1-8.28V47.33h-7.17V35.84l8-.63,1.79-13.92h12.86V35.21h12.55V47.33H397.59v21q0,4.43,1.85,6.38a6.42,6.42,0,0,0,4.9,2,11.11,11.11,0,0,0,2.58-.32,15.8,15.8,0,0,0,2.37-.74l2.43,11.28q-2.12.65-5,1.27A30.94,30.94,0,0,1,400.12,88.76Z"/><path d="M431.43,88.76A16.59,16.59,0,0,1,425,87.55a13.88,13.88,0,0,1-4.9-3.37,15.55,15.55,0,0,1-3.11-5A17,17,0,0,1,415.83,73a14.64,14.64,0,0,1,7-12.86q7-4.64,22.45-6.22a8.82,8.82,0,0,0-2.05-5.54q-1.85-2.05-6.17-2a18.7,18.7,0,0,0-6.69,1.26A49.68,49.68,0,0,0,423.21,51L417.62,40.8a55.24,55.24,0,0,1,10.6-5A36.09,36.09,0,0,1,440,33.94q10.13,0,15.45,5.75t5.32,17.87V87.5H448.09L447,82.12h-.42a33.4,33.4,0,0,1-7.06,4.8A17.91,17.91,0,0,1,431.43,88.76Zm5.27-12a8.49,8.49,0,0,0,4.54-1.16,22.15,22.15,0,0,0,4-3.26V63.15q-8.22,1.16-11.38,3.37t-3.17,5.27a4.35,4.35,0,0,0,1.64,3.74A7.17,7.17,0,0,0,436.7,76.74Z"/></svg>