<svg id="Layer_1" data-name="Layer 1" xmlns="http://www.w3.org/2000/svg" viewBox="0 0 595 105"><defs><style>.cls-1{fill:#e40303;}.cls-2{fill:#ff8c00;}.cls-3{fill:#ffed00;}.cls-4{fill:#008026;}.cls-5{fill:#004dff;}.cls-6{fill:#750787;}.cls-7{font-size:105.42px;font-family:SourceSansPro-Bold, Source Sans Pro;font-weight:700;}.cls-8{letter-spacing:-0.02em;}.cls-9{letter-spacing:-0.02em;}</style></defs><polygon class="cls-1" points="579.86 17.53 518.03 17.53 521.84 0.03 583.68 0.03 579.86 17.53"/><polygon class="cls-2" points="576.36 35.03 514.53 35.03 518.34 17.53 580.18 17.53 576.36 35.03"/><polygon class="cls-3" points="572.86 52.53 511.03 52.53 514.84 35.03 576.68 35.03 572.86 52.53"/><polygon class="cls-4" points="569.36 70.03 507.53 70.03 511.34 52.53 573.18 52.53 569.36 70.03"/><polygon class="cls-5" points="565.86 87.53 504.03 87.53 507.84 70.03 569.68 70.03 565.86 87.53"/><polygon class="cls-6" points="562.36 105.03 500.53 105.03 504.34 87.53 566.18 87.53 562.36 105.03"/><polygon points="582.85 0.03 595.01 0.03 570.79 105.03 558.63 105.03 582.85 0.03"/><polygon points="575.85 0 588.01 0 563.79 105 551.63 105 575.85 0"/><polygon points="521.85 0.03 534.01 0.03 509.79 105.03 497.63 105.03 521.85 0.03"/><polygon points="526.85 0 539.01 0 514.79 105 502.63 105 526.85 0"/><polygon points="23.85 0.03 36.02 0.03 11.79 105.03 -0.37 105.03 23.85 0.03"/><polygon points="29.85 0 42.02 0 17.79 105 5.63 105 29.85 0"/><text class="cls-7" transform="translate(67.01 87.5)">nav d<tspan class="cls-8" x="252.47" y="0">a</tspan><tspan class="cls-9" x="306.13" y="0">t</tspan><tspan x="344.39" y="0">a</tspan></text></svg>