<svg xmlns="http://www.w3.org/2000/svg" viewBox="0 0 498.1 173.85"><defs><style>.cls-1,.cls-4{fill:none;stroke-miterlimit:10;}.cls-1{stroke:#193047;stroke-linecap:round;stroke-width:10px;}.cls-2{fill:#a1bec7;}.cls-3{fill:#fff;}.cls-4{stroke:#c30000;stroke-width:8px;}.cls-5{fill:#193047;}</style></defs><g id="Layer_1" data-name="Layer 1"><line class="cls-1" x1="62.79" y1="101.6" x2="81.84" y2="154.44"/><circle class="cls-2" cx="50.72" cy="68.85" r="26.28"/><circle class="cls-3" cx="52.45" cy="70.93" r="25.15"/><circle class="cls-4" cx="50.97" cy="68.82" r="32.78"/><path class="cls-5" d="M107.71,139.24c0-9.92,6.22-16,12.89-16,3.45,0,5.63,1.29,8,3.35l-.28-4.91v-11h7.14v43.79H129.6l-.54-3.3h-.2a12.74,12.74,0,0,1-8.66,4C112.62,155.18,107.71,149.28,107.71,139.24Zm20.6,6.62V131.67a9,9,0,0,0-6.2-2.53c-3.86,0-7.06,3.68-7.06,10,0,6.63,2.53,10.12,6.91,10.12C124.32,149.28,126.3,148.24,128.31,145.86Z"/><path class="cls-5" d="M142.9,146.26c0-6.53,5.4-9.92,17.9-11.26-.1-3.28-1.41-6-5.53-6-3,0-5.88,1.36-8.55,3l-2.63-4.76a23.69,23.69,0,0,1,12.49-4c7.62,0,11.36,4.69,11.36,13.17v18h-5.85l-.55-3.37h-.19c-2.73,2.33-5.86,4.11-9.45,4.11C146.57,155.18,142.9,151.56,142.9,146.26Zm17.9,0v-6.84c-8.26,1-11,3.2-11,6.27,0,2.69,1.84,3.87,4.39,3.87S158.54,148.36,160.8,146.28Z"/><path class="cls-5" d="M176.6,144.17v-14.5h-4.34v-5.36L177,124l.84-8.31h5.93V124h7.76v5.68h-7.76v14.49c0,3.58,1.39,5.35,4.32,5.35a9.46,9.46,0,0,0,3.17-.7l1.22,5.26a20,20,0,0,1-6.23,1.11C179.2,155.18,176.6,150.74,176.6,144.17Z"/><path class="cls-5" d="M195,146.26c0-6.53,5.4-9.92,17.9-11.26-.1-3.28-1.41-6-5.53-6-3,0-5.88,1.36-8.55,3l-2.63-4.76a23.69,23.69,0,0,1,12.49-4c7.62,0,11.36,4.69,11.36,13.17v18h-5.85l-.55-3.37h-.19c-2.73,2.33-5.86,4.11-9.45,4.11C198.65,155.18,195,151.56,195,146.26Zm17.9,0v-6.84c-8.26,1-11,3.2-11,6.27,0,2.69,1.84,3.87,4.39,3.87S210.62,148.36,212.88,146.28Z"/><path class="cls-5" d="M228.6,110.65h7V138h.2l11.28-14h7.81l-10.44,12.4L256,154.44H248.2l-7.84-13.22-4.76,5.48v7.74h-7Z"/><path class="cls-5" d="M258.71,146.26c0-6.53,5.41-9.92,17.91-11.26-.1-3.28-1.42-6-5.53-6-3,0-5.88,1.36-8.56,3l-2.63-4.76a23.72,23.72,0,0,1,12.5-4c7.61,0,11.36,4.69,11.36,13.17v18h-5.85l-.55-3.37h-.2c-2.73,2.33-5.85,4.11-9.45,4.11C262.38,155.18,258.71,151.56,258.71,146.26Zm17.91,0v-6.84c-8.26,1-11,3.2-11,6.27,0,2.69,1.83,3.87,4.38,3.87S274.36,148.36,276.62,146.28Z"/><path class="cls-5" d="M292.41,144.17v-14.5h-4.34v-5.36l4.72-.32.84-8.31h5.93V124h7.76v5.68h-7.76v14.49c0,3.58,1.38,5.35,4.31,5.35a9.46,9.46,0,0,0,3.17-.7l1.22,5.26a19.9,19.9,0,0,1-6.22,1.11C295,155.18,292.41,150.74,292.41,144.17Z"/><path class="cls-5" d="M310.79,146.26c0-6.53,5.41-9.92,17.91-11.26-.1-3.28-1.42-6-5.53-6-3,0-5.88,1.36-8.56,3L312,127.24a23.72,23.72,0,0,1,12.5-4c7.61,0,11.36,4.69,11.36,13.17v18H330l-.55-3.37h-.2c-2.73,2.33-5.85,4.11-9.45,4.11C314.46,155.18,310.79,151.56,310.79,146.26Zm17.91,0v-6.84c-8.26,1-11,3.2-11,6.27,0,2.69,1.83,3.87,4.38,3.87S326.44,148.36,328.7,146.28Z"/><path class="cls-5" d="M344.42,146.6V110.65h7.14V147c0,1.77.79,2.39,1.54,2.39a3.94,3.94,0,0,0,1.11-.13l.9,5.33a10,10,0,0,1-3.77.62C346.28,155.18,344.42,151.91,344.42,146.6Z"/><path class="cls-5" d="M359.21,139.24c0-10.14,6.9-16,14.48-16s14.49,5.86,14.49,16-6.9,15.94-14.49,15.94S359.21,149.33,359.21,139.24Zm21.63,0c0-6.1-2.68-10.17-7.15-10.17s-7.14,4.07-7.14,10.17,2.68,10.12,7.14,10.12S380.84,145.34,380.84,139.24Z"/><path class="cls-5" d="M393.18,160c0-2.57,1.58-4.81,4.39-6.5v-.25a5.74,5.74,0,0,1-2.76-5.08,7.36,7.36,0,0,1,3.38-5.68v-.25a10.1,10.1,0,0,1-4-8c0-7,5.65-10.94,12-10.94a13.55,13.55,0,0,1,4.51.75h10.88v5.3H416a8,8,0,0,1,1.74,5.11c0,6.77-5.14,10.39-11.58,10.39a11.67,11.67,0,0,1-4.12-.8,3.49,3.49,0,0,0-1.49,2.91c0,1.71,1.24,2.75,4.94,2.75h5.41c7.28,0,11.15,2.26,11.15,7.52,0,6-6.3,10.74-16.24,10.74C398.58,167.91,393.18,165.3,393.18,160Zm22-1.64c0-2.35-1.89-3.05-5.37-3.05h-4.18a16.48,16.48,0,0,1-4.12-.42,5.06,5.06,0,0,0-2.35,4c0,2.78,3,4.39,7.76,4.39S415.2,161,415.2,158.33Zm-3.72-24.15c0-3.82-2.31-6-5.28-6s-5.29,2.16-5.29,6,2.36,6.12,5.29,6.12S411.48,138.05,411.48,134.18Z"/><path class="cls-5" d="M424.5,139.24c0-9.9,6.87-16,14-16,8.24,0,12.58,6,12.58,14.46a18.58,18.58,0,0,1-.31,3.47H431.47c.59,5.41,4.06,8.48,9,8.48a13,13,0,0,0,7.07-2.2l2.43,4.43a18.89,18.89,0,0,1-10.44,3.3C431.09,155.18,424.5,149.28,424.5,139.24Zm20.43-2.93c0-4.68-2.08-7.54-6.25-7.54-3.54,0-6.67,2.66-7.29,7.54Z"/><path class="cls-5" d="M457.94,124h5.85l.55,4.11h.2c2.72-2.65,5.82-4.86,10-4.86,6.52,0,9.37,4.42,9.37,12.1v19.1h-7.14V136.26c0-5-1.44-6.89-4.73-6.89-2.68,0-4.44,1.31-6.95,3.79v21.28h-7.14Z"/></g><g id="Layer_3" data-name="Layer 3"><path d="M109.2,36.31h12.17l1.14,8.57h.41c5.68-5.52,12.13-10.11,20.8-10.11,13.57,0,19.5,9.18,19.5,25.18V99.68H148.36V61.86c0-10.43-3-14.35-9.86-14.35-5.57,0-9.23,2.74-14.44,7.9V99.68H109.2Z"/><path d="M172.64,82.65c0-13.57,11.25-20.64,37.25-23.43-.2-6.81-2.94-12.48-11.5-12.48-6.3,0-12.23,2.84-17.81,6.24l-5.46-9.91c7-4.38,15.94-8.3,26-8.3,15.84,0,23.63,9.75,23.63,27.4V99.68H212.58l-1.14-7H211c-5.68,4.85-12.18,8.57-19.66,8.57C180.28,101.23,172.64,93.69,172.64,82.65Zm37.25,0V68.46C192.71,70.63,187,75.12,187,81.51c0,5.6,3.82,8,9.14,8C201.28,89.56,205.2,87,209.89,82.7Z"/><path d="M235.67,68.05c0-20.64,13-33.28,26.83-33.28,7.17,0,11.71,2.68,16.61,7l-.57-10.21v-23h14.87V99.68H281.23l-1.14-6.86h-.41c-4.69,4.69-11.2,8.41-18,8.41C245.88,101.23,235.67,89,235.67,68.05Zm42.87,13.77V52.31c-4.33-3.87-8.61-5.26-12.89-5.26-8,0-14.71,7.63-14.71,20.84,0,13.78,5.26,21.06,14.4,21.06C270.24,89,274.37,86.78,278.54,81.82Z"/><path d="M303.49,82.65c0-13.57,11.25-20.64,37.26-23.43-.21-6.81-2.94-12.48-11.51-12.48-6.29,0-12.23,2.84-17.8,6.24L306,43.07c7-4.38,15.94-8.3,26-8.3,15.84,0,23.63,9.75,23.63,27.4V99.68H343.43l-1.13-7h-.42c-5.67,4.85-12.17,8.57-19.66,8.57C311.13,101.23,303.49,93.69,303.49,82.65Zm37.26,0V68.46c-17.18,2.17-22.91,6.66-22.91,13.05,0,5.6,3.82,8,9.13,8C332.13,89.56,336.05,87,340.75,82.7Z"/></g></svg>