<svg id="Layer_1" data-name="Layer 1" xmlns="http://www.w3.org/2000/svg" viewBox="0 0 688 113"><defs><style>.cls-1{fill:#e40303;}.cls-2{fill:#ff8c00;}.cls-3{fill:#ffed00;}.cls-4{fill:#008026;}.cls-5{fill:#004dff;}.cls-6{fill:#750787;}.cls-7{fill:#333;}</style></defs><polygon class="cls-1" points="658.92 19 599 19 602.7 0 662.61 0 658.92 19"/><polygon class="cls-2" points="653.53 36 593.46 36 597.17 18 657.24 18 653.53 36"/><polygon class="cls-3" points="651.69 54 588.09 54 592.01 35 655.61 35 651.69 54"/><polygon class="cls-4" points="646.53 71 586.46 71 590.17 53 650.24 53 646.53 71"/><polygon class="cls-5" points="644.69 88 581.09 88 585.01 70 648.61 70 644.69 88"/><polygon class="cls-6" points="641.19 105 577.59 105 581.51 87 645.11 87 641.19 105"/><polygon class="cls-7" points="660.85 0 673.01 0 648.79 105 636.63 105 660.85 0"/><polygon class="cls-7" points="653.85 0 666.01 0 641.79 105 629.63 105 653.85 0"/><polygon class="cls-7" points="599.85 0 612.01 0 587.79 105 575.63 105 599.85 0"/><polygon class="cls-7" points="604.85 0 617.01 0 592.79 105 580.63 105 604.85 0"/><polygon class="cls-7" points="23.85 0 36.02 0 11.79 105 -0.37 105 23.85 0"/><polygon class="cls-7" points="29.85 0 42.02 0 17.79 105 5.63 105 29.85 0"/><path class="cls-7" d="M60.69,94.35V28.07h16l1.34,8.42h.53a53.72,53.72,0,0,1,9.36-7,22.93,22.93,0,0,1,11.89-3q10.82,0,15.7,7.08t4.88,19.64V94.35H100.78V55.73c0-4.81-.64-8.1-1.93-9.89s-3.37-2.67-6.22-2.67a11.88,11.88,0,0,0-6.41,1.67,38.12,38.12,0,0,0-5.88,4.75V94.35Z"/><path class="cls-7" d="M153.83,96a21.11,21.11,0,0,1-8.21-1.54,17.42,17.42,0,0,1-6.22-4.28,19.87,19.87,0,0,1-3.94-6.34,21.53,21.53,0,0,1-1.4-7.89,18.55,18.55,0,0,1,8.82-16.3q8.82-5.88,28.46-7.89a11.17,11.17,0,0,0-2.61-7q-2.34-2.61-7.81-2.61a23.66,23.66,0,0,0-8.49,1.61,60.81,60.81,0,0,0-9,4.41l-7.08-13a69.82,69.82,0,0,1,13.43-6.28,45.71,45.71,0,0,1,14.9-2.4q12.83,0,19.57,7.28T191,56.4V94.35H175l-1.34-6.81h-.53a42.84,42.84,0,0,1-9,6.08A22.78,22.78,0,0,1,153.83,96Zm6.69-15.24a10.79,10.79,0,0,0,5.74-1.47,27.87,27.87,0,0,0,5.08-4.14V63.48q-10.43,1.47-14.43,4.28c-2.68,1.87-4,4.1-4,6.68A5.54,5.54,0,0,0,155,79.19,9.13,9.13,0,0,0,160.52,80.72Z"/><path class="cls-7" d="M222.79,94.35,200.47,28.07h19.78l8.55,31.27q1.33,4.95,2.61,10.09T234,79.79h.54q1.2-5.22,2.47-10.36t2.6-10.09l8.69-31.27h18.84L245.5,94.35Z"/><path class="cls-7" d="M327.82,96a25.5,25.5,0,0,1-11.16-2.41,24.08,24.08,0,0,1-8.55-6.88,32.59,32.59,0,0,1-5.48-10.89,50.44,50.44,0,0,1-1.94-14.57A42.28,42.28,0,0,1,303,46.65a35.33,35.33,0,0,1,6.15-10.9A26.82,26.82,0,0,1,318,28.87a23.43,23.43,0,0,1,10.22-2.4,19.92,19.92,0,0,1,9.22,1.87,32.49,32.49,0,0,1,7.08,5.08l-.8-10.16V.68h19.64V94.35h-16L346,87.8h-.53a31.22,31.22,0,0,1-8.15,5.82A21.14,21.14,0,0,1,327.82,96Zm5.08-16a12.43,12.43,0,0,0,5.81-1.34,14.73,14.73,0,0,0,5-4.67V46.78a15.66,15.66,0,0,0-5.48-3.34,17.39,17.39,0,0,0-5.48-.94q-4.68,0-8.28,4.48t-3.61,14q0,9.9,3.14,14.44A10.17,10.17,0,0,0,332.9,79.92Z"/><path class="cls-7" d="M397.44,96a21.2,21.2,0,0,1-8.22-1.54A17.47,17.47,0,0,1,383,90.14a19.52,19.52,0,0,1-3.94-6.34,21.53,21.53,0,0,1-1.41-7.89,18.55,18.55,0,0,1,8.82-16.3q8.82-5.88,28.47-7.89a11.17,11.17,0,0,0-2.61-7Q410,42.1,404.52,42.1A23.61,23.61,0,0,0,396,43.71a60.33,60.33,0,0,0-9,4.41l-7.09-13a70.38,70.38,0,0,1,13.43-6.28,45.76,45.76,0,0,1,14.9-2.4q12.84,0,19.58,7.28t6.75,22.65V94.35h-16l-1.33-6.81h-.54a42.52,42.52,0,0,1-8.95,6.08A22.81,22.81,0,0,1,397.44,96Zm6.68-15.24a10.83,10.83,0,0,0,5.75-1.47A28.56,28.56,0,0,0,415,75.11V63.48q-10.43,1.47-14.44,4.28t-4,6.68a5.52,5.52,0,0,0,2.08,4.75A9.1,9.1,0,0,0,404.12,80.72Z"/><path class="cls-7" d="M474.28,96a26.37,26.37,0,0,1-10.49-1.88,18.18,18.18,0,0,1-7.08-5.21,21,21,0,0,1-4-8.08,40.37,40.37,0,0,1-1.27-10.49V43.44h-9.09V28.87l10.16-.8,2.27-17.64h16.3V28.07H487V43.44h-15.9V70q0,5.61,2.34,8.09a8.14,8.14,0,0,0,6.21,2.47,14.48,14.48,0,0,0,3.28-.4,21.71,21.71,0,0,0,3-.94L489,93.55c-1.79.53-3.88,1.07-6.28,1.6A38.78,38.78,0,0,1,474.28,96Z"/><path class="cls-7" d="M514,96a21.2,21.2,0,0,1-8.22-1.54,17.6,17.6,0,0,1-6.22-4.28,19.87,19.87,0,0,1-3.94-6.34,21.74,21.74,0,0,1-1.4-7.89A18.55,18.55,0,0,1,503,59.61q8.82-5.88,28.46-7.89a11.22,11.22,0,0,0-2.6-7q-2.34-2.61-7.82-2.61a23.7,23.7,0,0,0-8.49,1.61,61.29,61.29,0,0,0-9,4.41l-7.08-13a70.1,70.1,0,0,1,13.43-6.28,45.71,45.71,0,0,1,14.9-2.4q12.83,0,19.58,7.28t6.75,22.65V94.35h-16l-1.34-6.81h-.53a42.78,42.78,0,0,1-9,6.08A22.81,22.81,0,0,1,514,96Zm6.68-15.24a10.79,10.79,0,0,0,5.74-1.47,27.87,27.87,0,0,0,5.08-4.14V63.48Q521,64.95,517,67.76t-4,6.68a5.54,5.54,0,0,0,2.07,4.75A9.13,9.13,0,0,0,520.65,80.72Z"/></svg>