<svg id="Layer_1" data-name="Layer 1" xmlns="http://www.w3.org/2000/svg" viewBox="0 0 645 105"><defs><style>.cls-1{fill:#e40303;}.cls-2{fill:#ff8c00;}.cls-3{fill:#ffed00;}.cls-4{fill:#008026;}.cls-5{fill:#004dff;}.cls-6{fill:#750787;}.cls-7{fill:#333;}</style></defs><polygon class="cls-1" points="627.86 17.53 566.03 17.53 569.84 0.03 631.68 0.03 627.86 17.53"/><polygon class="cls-2" points="624.36 35.03 562.53 35.03 566.34 17.53 628.18 17.53 624.36 35.03"/><polygon class="cls-3" points="620.86 52.53 559.03 52.53 562.84 35.03 624.68 35.03 620.86 52.53"/><polygon class="cls-4" points="617.36 70.03 555.53 70.03 559.34 52.53 621.18 52.53 617.36 70.03"/><polygon class="cls-5" points="613.86 87.53 552.03 87.53 555.84 70.03 617.68 70.03 613.86 87.53"/><polygon class="cls-6" points="610.36 105.03 548.53 105.03 552.34 87.53 614.18 87.53 610.36 105.03"/><polygon class="cls-7" points="630.85 0.03 643.01 0.03 618.79 105.03 606.63 105.03 630.85 0.03"/><polygon class="cls-7" points="623.85 0 636.01 0 611.79 105 599.63 105 623.85 0"/><polygon class="cls-7" points="569.85 0.03 582.01 0.03 557.79 105.03 545.63 105.03 569.85 0.03"/><polygon class="cls-7" points="574.85 0 587.01 0 562.79 105 550.63 105 574.85 0"/><polygon class="cls-7" points="23.85 0.03 36.02 0.03 11.79 105.03 -0.37 105.03 23.85 0.03"/><polygon class="cls-7" points="29.85 0 42.02 0 17.79 105 5.63 105 29.85 0"/><path class="cls-7" d="M59.21,96.71V34.14H74.35l1.26,7.94h.5a50.65,50.65,0,0,1,8.83-6.62,21.67,21.67,0,0,1,11.23-2.84q10.22,0,14.83,6.69t4.6,18.54V96.71H97.06V60.25c0-4.54-.62-7.65-1.83-9.34s-3.18-2.52-5.87-2.52A11.23,11.23,0,0,0,83.3,50a35.23,35.23,0,0,0-5.55,4.48V96.71Z"/><path class="cls-7" d="M147.14,98.22a19.87,19.87,0,0,1-7.76-1.45,16.55,16.55,0,0,1-5.87-4,18.54,18.54,0,0,1-3.72-6,20.41,20.41,0,0,1-1.32-7.44,17.51,17.51,0,0,1,8.32-15.39q8.33-5.55,26.87-7.45a10.57,10.57,0,0,0-2.46-6.62q-2.2-2.46-7.38-2.46a22.35,22.35,0,0,0-8,1.52,56.45,56.45,0,0,0-8.51,4.16l-6.69-12.24a65.87,65.87,0,0,1,12.68-5.93,43.14,43.14,0,0,1,14.07-2.27q12.1,0,18.48,6.88t6.37,21.38V96.71H167.07l-1.26-6.44h-.51A39.82,39.82,0,0,1,156.85,96,21.42,21.42,0,0,1,147.14,98.22Zm6.3-14.38a10.15,10.15,0,0,0,5.43-1.39,26.43,26.43,0,0,0,4.79-3.91v-11q-9.84,1.38-13.62,4c-2.52,1.77-3.79,3.87-3.79,6.31a5.2,5.2,0,0,0,2,4.48A8.56,8.56,0,0,0,153.44,83.84Z"/><path class="cls-7" d="M212.23,96.71,191.16,34.14h18.67l8.08,29.52q1.26,4.66,2.46,9.52T222.83,83h.5q1.14-4.92,2.34-9.78c.79-3.24,1.62-6.41,2.46-9.52l8.2-29.52h17.78L233.68,96.71Z"/><path class="cls-7" d="M311.39,98.22A24.12,24.12,0,0,1,300.85,96a22.71,22.71,0,0,1-8.07-6.5,30.55,30.55,0,0,1-5.17-10.28,47.49,47.49,0,0,1-1.83-13.75A39.79,39.79,0,0,1,288,51.67a33.16,33.16,0,0,1,5.8-10.28,25.28,25.28,0,0,1,8.32-6.5,22.19,22.19,0,0,1,9.66-2.27,18.8,18.8,0,0,1,8.7,1.77,31,31,0,0,1,6.69,4.79l-.76-9.59V8.27h18.54V96.71H329.81l-1.27-6.18H328a29.4,29.4,0,0,1-7.7,5.48A19.85,19.85,0,0,1,311.39,98.22Zm4.79-15.14a11.87,11.87,0,0,0,5.49-1.26,13.88,13.88,0,0,0,4.73-4.41V51.8a14.77,14.77,0,0,0-5.17-3.16,16.57,16.57,0,0,0-5.18-.88q-4.41,0-7.82,4.23t-3.4,13.18c0,6.22,1,10.77,3,13.62A9.6,9.6,0,0,0,316.18,83.08Z"/><path class="cls-7" d="M377.11,98.22a19.91,19.91,0,0,1-7.76-1.45,16.52,16.52,0,0,1-5.86-4,18.54,18.54,0,0,1-3.72-6,20.21,20.21,0,0,1-1.33-7.44,17.52,17.52,0,0,1,8.33-15.39q8.33-5.55,26.87-7.45a10.57,10.57,0,0,0-2.46-6.62q-2.21-2.46-7.38-2.46a22.35,22.35,0,0,0-8,1.52,57,57,0,0,0-8.52,4.16l-6.68-12.24a65.6,65.6,0,0,1,12.68-5.93,43.12,43.12,0,0,1,14.06-2.27q12.1,0,18.48,6.88t6.37,21.38V96.71H397l-1.26-6.44h-.5A39.82,39.82,0,0,1,386.83,96,21.46,21.46,0,0,1,377.11,98.22Zm6.31-14.38a10.2,10.2,0,0,0,5.43-1.39,26.43,26.43,0,0,0,4.79-3.91v-11q-9.84,1.38-13.63,4t-3.78,6.31a5.2,5.2,0,0,0,2,4.48A8.54,8.54,0,0,0,383.42,83.84Z"/><path class="cls-7" d="M449.65,98.22a25.08,25.08,0,0,1-9.9-1.76,17.33,17.33,0,0,1-6.69-4.92,20.14,20.14,0,0,1-3.78-7.64,38.15,38.15,0,0,1-1.2-9.9V48.64H419.5V34.89l9.59-.75,2.14-16.66h15.39V34.14h15v14.5h-15V73.75q0,5.3,2.21,7.63a7.68,7.68,0,0,0,5.87,2.33,13.3,13.3,0,0,0,3.09-.37,21.2,21.2,0,0,0,2.84-.89l2.9,13.5c-1.69.51-3.66,1-5.93,1.51A36.6,36.6,0,0,1,449.65,98.22Z"/><path class="cls-7" d="M487.12,98.22a19.87,19.87,0,0,1-7.76-1.45,16.52,16.52,0,0,1-5.86-4,18.74,18.74,0,0,1-3.73-6,20.41,20.41,0,0,1-1.32-7.44,17.51,17.51,0,0,1,8.32-15.39q8.34-5.55,26.88-7.45a10.57,10.57,0,0,0-2.46-6.62q-2.22-2.46-7.38-2.46a22.36,22.36,0,0,0-8,1.52,57.39,57.39,0,0,0-8.51,4.16l-6.69-12.24a66.15,66.15,0,0,1,12.68-5.93,43.18,43.18,0,0,1,14.07-2.27q12.11,0,18.48,6.88t6.37,21.38V96.71H507.05l-1.26-6.44h-.5A39.88,39.88,0,0,1,496.83,96,21.42,21.42,0,0,1,487.12,98.22Zm6.31-14.38a10.14,10.14,0,0,0,5.42-1.39,26.46,26.46,0,0,0,4.8-3.91v-11q-9.84,1.38-13.63,4t-3.78,6.31a5.22,5.22,0,0,0,1.95,4.48A8.57,8.57,0,0,0,493.43,83.84Z"/></svg>