<?xml version="1.0" standalone="no"?>
<!DOCTYPE svg PUBLIC "-//W3C//DTD SVG 20010904//EN"
 "http://www.w3.org/TR/2001/REC-SVG-20010904/DTD/svg10.dtd">
<svg version="1.0" xmlns="http://www.w3.org/2000/svg"
 width="700.000000pt" height="700.000000pt" viewBox="0 0 700.000000 700.000000"
 preserveAspectRatio="xMidYMid meet">
<metadata>
Created by potrace 1.14, written by Peter Selinger 2001-2017
</metadata>
<g transform="translate(0.000000,700.000000) scale(0.100000,-0.100000)"
fill="#000000" stroke="none">
<path d="M2616 6428 c-287 -32 -598 -146 -844 -308 -703 -461 -1009 -1340
-746 -2135 196 -594 680 -1058 1288 -1235 190 -55 319 -73 541 -73 165 -1 221
3 322 21 143 26 314 76 430 126 l82 35 34 -47 c19 -26 375 -526 792 -1112 417
-586 774 -1082 794 -1103 60 -64 123 -91 211 -92 123 0 214 56 267 163 23 47
28 70 28 132 -1 46 -7 89 -17 110 -8 19 -376 541 -817 1159 l-801 1125 48 50
c296 307 475 690 521 1118 61 557 -152 1129 -570 1533 -167 161 -301 254 -514
356 -321 153 -701 217 -1049 177z m344 -472 c311 -17 641 -165 882 -395 196
-186 330 -413 401 -681 29 -110 31 -124 31 -320 1 -276 -26 -404 -133 -625
-201 -412 -606 -703 -1078 -774 -103 -16 -322 -13 -433 4 -593 95 -1057 525
-1192 1105 -25 110 -35 365 -19 482 75 524 431 956 936 1131 157 54 376 90
490 80 17 -1 68 -4 115 -7z"/>
</g>
</svg>
