<?xml version="1.0" standalone="no"?>
<!DOCTYPE svg PUBLIC "-//W3C//DTD SVG 20010904//EN"
 "http://www.w3.org/TR/2001/REC-SVG-20010904/DTD/svg10.dtd">
<svg version="1.0" xmlns="http://www.w3.org/2000/svg"
 width="700.000000pt" height="700.000000pt" viewBox="0 0 700.000000 700.000000"
 preserveAspectRatio="xMidYMid meet">
<metadata>
Created by potrace 1.14, written by Peter Selinger 2001-2017
</metadata>
<g transform="translate(0.000000,700.000000) scale(0.100000,-0.100000)"
fill="#000000" stroke="none">
<path d="M1864 6986 c-2 -6 -359 -1554 -794 -3441 -435 -1886 -797 -3455 -804
-3485 l-13 -55 2433 0 2433 0 6 23 c46 186 1604 6956 1601 6959 -3 3 -1097 6
-2431 7 -1697 1 -2428 -1 -2431 -8z m3325 -1184 c-8 -38 -699 -3027 -910
-3937 -60 -259 -121 -521 -135 -583 l-26 -112 -1230 0 -1230 0 6 25 c7 29 227
983 402 1745 68 300 247 1075 397 1723 l271 1177 1232 0 1232 0 -9 -38z"/>
</g>
</svg>
